<svg width="56" height="40" viewBox="0 0 56 40" fill="none" xmlns="http://www.w3.org/2000/svg">
<g clip-path="url(#clip0_15787_56300)">
<path fill-rule="evenodd" clip-rule="evenodd" d="M24.5264 26.269H31.2174V13.708H24.5264V26.269Z" fill="#FF5F00"/>
<path fill-rule="evenodd" clip-rule="evenodd" d="M24.9514 19.9885C24.9514 17.4402 26.0935 15.1705 27.8721 13.708C26.5713 12.6382 24.9302 12 23.1463 12C18.9233 12 15.5 15.5766 15.5 19.9885C15.5 24.4003 18.9233 27.9769 23.1463 27.9769C24.9302 27.9769 26.5713 27.3388 27.8721 26.269C26.0935 24.8062 24.9514 22.5368 24.9514 19.9885Z" fill="#EB001B"/>
<path fill-rule="evenodd" clip-rule="evenodd" d="M40.0054 24.9387V24.6287H39.9279L39.8389 24.8419L39.7497 24.6287H39.6722V24.9387H39.7267V24.7048L39.8104 24.9065H39.8672L39.9508 24.7043V24.9387H40.0054ZM39.5145 24.9387V24.6815H39.614V24.6291H39.3612V24.6815H39.4604V24.9387H39.5145ZM40.2442 19.9885C40.2442 24.4003 36.8207 27.977 32.5979 27.977C30.814 27.977 29.1727 27.3388 27.8721 26.269C29.6506 24.8064 30.7928 22.5368 30.7928 19.9885C30.7928 17.4404 29.6506 15.1708 27.8721 13.708C29.1727 12.6382 30.814 12 32.5979 12C36.8207 12 40.2442 15.5766 40.2442 19.9885Z" fill="#F79E1B"/>
</g>
<defs>
<clipPath id="clip0_15787_56300">
<rect width="25" height="16" fill="white" transform="translate(15.5 12)"/>
</clipPath>
</defs>
</svg>
