<svg width="12" height="12" viewBox="0 0 12 12" fill="none" xmlns="http://www.w3.org/2000/svg">
<path d="M4.5 4.50018V3.00018C4.5 2.17176 3.82843 1.50018 3 1.50018C2.17157 1.50018 1.5 2.17176 1.5 3.00018C1.5 3.82861 2.17157 4.50018 3 4.50018H4.5ZM4.5 4.50018V7.50018M4.5 4.50018H7.5M4.5 7.50018V9.00018C4.5 9.82861 3.82843 10.5002 3 10.5002C2.17157 10.5002 1.5 9.82861 1.5 9.00018C1.5 8.17176 2.17157 7.50018 3 7.50018H4.5ZM4.5 7.50018H7.5M7.5 7.50018H9C9.82843 7.50018 10.5 8.17176 10.5 9.00018C10.5 9.82861 9.82843 10.5002 9 10.5002C8.17157 10.5002 7.5 9.82861 7.5 9.00018V7.50018ZM7.5 7.50018V4.50018M7.5 4.50018V3.00018C7.5 2.17176 8.17157 1.50018 9 1.50018C9.82843 1.50018 10.5 2.17176 10.5 3.00018C10.5 3.82861 9.82843 4.50018 9 4.50018H7.5Z" stroke="#818898" stroke-linejoin="round"/>
</svg>
