<svg width="32" height="32" viewBox="0 0 32 32" fill="none" xmlns="http://www.w3.org/2000/svg">
<rect width="32" height="32" rx="8" fill="#1565FF"/>
<rect x="0.5" y="0.5" width="31" height="31" rx="7.5" stroke="url(#paint0_linear_17771_7126)" stroke-opacity="0.12"/>
<path d="M20.2605 11.8111L17.658 8.63815L16.9449 7.46168L17.5154 6L14.0573 8.92335L16.6597 12.0606L17.3728 13.2371L16.8023 14.6988L20.2605 11.8111Z" fill="white"/>
<path d="M15.234 10.385L11.1698 10.4563L9.81506 10.2781L9.06641 8.92334L9.17335 13.451L13.2375 13.3797L14.5923 13.5579L15.3409 14.9126L15.234 10.385Z" fill="white"/>
<path d="M10.9911 13.4509L8.5312 16.6951L7.56863 17.6934L6 17.4438L9.60071 20.1532L12.0606 16.909L13.0232 15.9465L14.5918 16.196L10.9911 13.4509Z" fill="white"/>
<path d="M10.7421 18.6916L11.7046 22.6488L11.8829 24.0035L10.7064 25.0731L15.0558 23.9322L14.0576 19.975L13.8793 18.6203L15.0558 17.5864L10.7421 18.6916Z" fill="white"/>
<path d="M14.6631 22.1497L18.3351 23.861L19.5116 24.6096L19.6185 26.1783L21.4367 22.0428L17.729 20.3316L16.5526 19.6186L16.4456 18.0499L14.6631 22.1497Z" fill="white"/>
<path d="M19.7971 21.2228L23.4335 19.4047L24.7169 18.9412L26.0003 19.8325L23.9326 15.8396L20.2962 17.6578L18.9771 18.1212L17.6937 17.23L19.7971 21.2228Z" fill="white"/>
<path d="M22.2926 16.6239L23.1126 12.6311L23.576 11.312L25.0734 10.8842L20.6527 9.99292L19.8327 13.9858L19.3693 15.3049L17.8719 15.7327L22.2926 16.6239Z" fill="white"/>
<defs>
<linearGradient id="paint0_linear_17771_7126" x1="16" y1="0" x2="16" y2="32" gradientUnits="userSpaceOnUse">
<stop stop-color="white"/>
<stop offset="1" stop-color="white" stop-opacity="0"/>
</linearGradient>
</defs>
</svg>
