<svg width="56" height="40" viewBox="0 0 56 40" fill="none" xmlns="http://www.w3.org/2000/svg">
<g clip-path="url(#clip0_15787_56329)">
<path d="M33.2916 14.5171C30.8089 14.5171 28.5903 15.7627 28.5903 18.064C28.5903 20.7032 32.5251 20.8855 32.5251 22.2114C32.5251 22.7696 31.8642 23.2694 30.7353 23.2694C29.1332 23.2694 27.9359 22.5711 27.9359 22.5711L27.4235 24.8934C27.4235 24.8934 28.8029 25.4832 30.6342 25.4832C33.3485 25.4832 35.4844 24.1765 35.4844 21.8358C35.4844 19.047 31.5332 18.8701 31.5332 17.6395C31.5332 17.2022 32.0758 16.723 33.2014 16.723C34.4714 16.723 35.5076 17.2308 35.5076 17.2308L36.009 14.9879C36.009 14.9879 34.8816 14.5171 33.2916 14.5171ZM10.5777 14.6864L10.5176 15.0249C10.5176 15.0249 11.562 15.21 12.5027 15.5791C13.714 16.0023 13.8003 16.2487 14.0042 17.014L16.2271 25.3086H19.2069L23.7975 14.6864H20.8245L17.8748 21.9085L16.6712 15.7867C16.5608 15.086 16.0016 14.6864 15.3172 14.6864H10.5777ZM24.993 14.6864L22.6608 25.3086H25.4957L27.8197 14.6864H24.993ZM40.8045 14.6864C40.1209 14.6864 39.7587 15.0406 39.493 15.6597L35.3396 25.3086H38.3125L38.8877 23.7005H42.5096L42.8594 25.3086H45.4826L43.1941 14.6864H40.8045ZM41.1912 17.5562L42.0724 21.5422H39.7115L41.1912 17.5562Z" fill="#1565FF"/>
</g>
<defs>
<clipPath id="clip0_15787_56329">
<rect width="35" height="11" fill="white" transform="translate(10.5 14.5)"/>
</clipPath>
</defs>
</svg>
