<svg width="453" height="246" viewBox="0 0 453 246" fill="none" xmlns="http://www.w3.org/2000/svg">
<path d="M54.3727 182.229H89.0959V220.99H0L36.069 38.7607H1.07669V0H90.4417L54.3727 182.229Z" fill="#09543D"/>
<path d="M179.433 182.229V220.99H98.9508V0H177.818V38.7607H143.902V88.5575H175.126V127.318H143.902V182.229H179.433Z" fill="#09543D"/>
<path d="M270.096 182.229V220.99H189.614V0H268.481V38.7607H234.566V88.5575H265.79V127.318H234.566V182.229H270.096Z" fill="#09543D"/>
<path d="M326.306 121.127H324.152L325.229 220.99H280.277V0H325.229L324.152 97.4402H326.575L349.454 0H397.098L365.336 102.554L399.52 220.99H348.647L326.306 121.127Z" fill="#09543D"/>
<path d="M426.352 174.693C431.915 174.693 436.67 175.859 440.618 178.192C444.566 180.345 447.617 183.396 449.77 187.344C451.923 191.291 453 195.688 453 200.533C453 208.07 451.564 215.068 448.693 221.528C445.822 228.168 440.887 233.641 433.889 237.948C427.07 242.434 418.097 244.857 406.972 245.216L406.702 240.64C416.752 237.589 421.956 231.219 422.314 221.528H420.699C416.931 221.528 413.432 220.631 410.202 218.837C406.972 217.042 404.37 214.53 402.396 211.3C400.601 207.89 399.704 204.122 399.704 199.995C399.704 195.329 400.781 191.112 402.934 187.344C405.087 183.396 408.138 180.345 412.086 178.192C416.213 175.859 420.969 174.693 426.352 174.693Z" fill="#09543D"/>
</svg>
