<svg width="20" height="20" viewBox="0 0 20 20" fill="none" xmlns="http://www.w3.org/2000/svg">
<path d="M16.4288 11.6466H13.9585C11.3196 11.6466 12.9385 14.5087 12.6391 15.9858C12.2285 18.0114 10.2848 18.9021 8.95476 17.9526C8.7849 17.8314 8.7672 17.5986 8.86623 17.4163C9.52864 16.1967 9.33874 14.896 9.12053 14.2501C8.72455 13.0781 7.6155 12.2578 6.7564 11.1558C6.57709 10.9258 6.30499 10.7787 6.01088 10.7787H3.40294C3.40294 10.7787 2.0835 9.47697 2.0835 6.4395C2.0835 5.14488 2.70989 4.00476 3.21513 3.29572C3.57054 2.79695 4.20958 2.62466 4.80909 2.77253L7.36127 3.40203C8.68072 2.10043 10.8798 1.6665 13.3174 1.6665M16.4288 11.6466C17.2506 11.6466 17.9168 10.9893 17.9168 10.1785C17.9168 9.37913 17.2686 8.72668 16.4586 8.71069M16.4288 11.6466L12.5646 11.3185C11.8604 11.2587 11.3196 10.6773 11.3196 9.97995C11.3196 9.22743 11.946 8.62165 12.7086 8.6367L13.5187 8.65268M16.4586 8.71069H16.6559C17.3523 8.71069 17.9168 8.15374 17.9168 7.4667C17.9168 6.77966 17.3523 6.22271 16.6559 6.22271M16.4586 8.71069L13.5187 8.65268M16.6559 6.22271H12.984M16.6559 6.22271C17.2309 6.22271 17.6969 5.64002 17.6969 5.07281C17.6969 4.43774 17.1751 3.92291 16.5314 3.92291H15.5748M12.984 6.22271C12.3077 6.22271 11.7594 6.76364 11.7594 7.43091C11.7594 8.08642 12.2892 8.62236 12.9534 8.63874L13.5187 8.65268M12.984 6.22271H12.9249C12.2812 6.22271 11.7594 5.70788 11.7594 5.07281C11.7594 4.43774 12.2812 3.92291 12.9249 3.92291H13.3174M15.5748 3.92291H13.3174M15.5748 3.92291C16.1821 3.92291 16.6745 3.39388 16.6745 2.79471C16.6745 2.19553 16.1821 1.6665 15.5748 1.6665H13.3174M13.3174 3.92291C12.7101 3.92291 12.2177 3.39388 12.2177 2.79471C12.2177 2.19553 12.7101 1.6665 13.3174 1.6665" stroke="#1565FF" stroke-width="2" stroke-linecap="round" stroke-linejoin="round"/>
</svg>
