<svg width="20" height="20" viewBox="0 0 20 20" fill="none" xmlns="http://www.w3.org/2000/svg">
<g clip-path="url(#clip0_17783_9212)">
<path d="M9.99999 6.66663C8.74999 6.66663 7.91666 7.49996 7.91666 8.33329C7.91666 9.58329 8.74999 9.99996 9.99999 9.99996C11.25 9.99996 12.0833 10.4166 12.0833 11.6666C12.0833 12.5 11.25 13.3333 9.99999 13.3333M9.99999 6.66663C11.25 6.66663 12.0833 7.49996 12.0833 8.1944M9.99999 6.66663V5.41663M9.99999 13.3333C8.74999 13.3333 8.05555 12.5 8.05555 11.8055M9.99999 13.3333V14.5833M9.99999 18.3333C5.39762 18.3333 1.66666 14.6023 1.66666 9.99996C1.66666 5.39759 5.39762 1.66663 9.99999 1.66663C14.6024 1.66663 18.3333 5.39759 18.3333 9.99996C18.3333 14.6023 14.6024 18.3333 9.99999 18.3333Z" stroke="#1565FF" stroke-width="2" stroke-linecap="round" stroke-linejoin="round"/>
</g>
<defs>
<clipPath id="clip0_17783_9212">
<rect width="20" height="20" fill="white"/>
</clipPath>
</defs>
</svg>
