<svg width="24" height="24" viewBox="0 0 24 24" fill="none" xmlns="http://www.w3.org/2000/svg">
<path fill-rule="evenodd" clip-rule="evenodd" d="M6 5H18C19.6569 5 21 6.34315 21 8V16C21 17.6569 19.6569 19 18 19H6C4.34315 19 3 17.6569 3 16V8C3 6.34315 4.34315 5 6 5ZM6.44721 7.10557C5.95324 6.85858 5.35256 7.05881 5.10557 7.55279C4.85858 8.04676 5.05881 8.64744 5.55279 8.89443L9.76393 11C11.1716 11.7038 12.8284 11.7038 14.2361 11L18.4472 8.89443C18.9412 8.64744 19.1414 8.04676 18.8944 7.55279C18.6474 7.05881 18.0468 6.85858 17.5528 7.10557L13.3416 9.21115C12.4971 9.63344 11.5029 9.63344 10.6584 9.21115L6.44721 7.10557Z" fill="#1565FF"/>
</svg>
