<svg width="20" height="20" viewBox="0 0 20 20" fill="none" xmlns="http://www.w3.org/2000/svg">
<g clip-path="url(#clip0_17865_3374)">
<path fill-rule="evenodd" clip-rule="evenodd" d="M10 2.6665C14.05 2.6665 17.3338 5.94957 17.334 9.99951C17.334 14.0496 14.0501 17.3335 10 17.3335C5.95006 17.3333 2.66699 14.0495 2.66699 9.99951C2.66717 5.94968 5.95017 2.66668 10 2.6665ZM9 9.1665V14.1665C9 14.7187 9.44787 15.1663 10 15.1665C10.5523 15.1665 11 14.7188 11 14.1665V9.1665C11 8.61422 10.5523 8.1665 10 8.1665C9.44787 8.16668 9 8.61433 9 9.1665ZM10 19.3335C15.1547 19.3335 19.334 15.1542 19.334 9.99951C19.3338 4.845 15.1545 0.666504 10 0.666504C4.8456 0.66668 0.667168 4.84511 0.666992 9.99951C0.666992 15.1541 4.84549 19.3333 10 19.3335ZM10.0003 6.6665C10.4606 6.6665 10.8337 6.29341 10.8337 5.83317C10.8337 5.37293 10.4606 4.99984 10.0003 4.99984C9.54009 4.99984 9.16699 5.37293 9.16699 5.83317C9.16699 6.29341 9.54009 6.6665 10.0003 6.6665Z" fill="#1565FF"/>
</g>
<defs>
<clipPath id="clip0_17865_3374">
<rect width="20" height="20" fill="white"/>
</clipPath>
</defs>
</svg>
