<svg width="20" height="20" viewBox="0 0 20 20" fill="none" xmlns="http://www.w3.org/2000/svg">
<path d="M16.4286 8.35309H13.9583C11.3194 8.35309 12.9382 5.49098 12.6388 4.01385C12.2282 1.9883 10.2845 1.09754 8.95451 2.04704C8.78465 2.16831 8.76696 2.40108 8.86599 2.58341C9.52839 3.80296 9.33849 5.1037 9.12029 5.74954C8.7243 6.92159 7.61526 7.74189 6.75616 8.84384C6.57685 9.07384 6.30474 9.22094 6.01064 9.22094H3.4027C3.4027 9.22094 2.08325 10.5227 2.08325 13.5602C2.08325 14.8548 2.70964 15.9949 3.21489 16.704C3.57029 17.2027 4.20933 17.375 4.80885 17.2271L7.36103 16.5976C8.68047 17.8992 10.8795 18.3332 13.3171 18.3332M16.4286 8.35309C17.2504 8.35309 17.9166 9.01038 17.9166 9.82118C17.9166 10.6205 17.2684 11.273 16.4583 11.289M16.4286 8.35309L12.5644 8.68114C11.8602 8.74093 11.3194 9.32236 11.3194 10.0197C11.3194 10.7722 11.9458 11.378 12.7084 11.363L13.5184 11.347M16.4583 11.289H16.6557C17.3521 11.289 17.9166 11.8459 17.9166 12.533C17.9166 13.22 17.3521 13.777 16.6557 13.777M16.4583 11.289L13.5184 11.347M16.6557 13.777H12.9838M16.6557 13.777C17.2306 13.777 17.6967 14.3597 17.6967 14.9269C17.6967 15.5619 17.1749 16.0768 16.5312 16.0768H15.5746M12.9838 13.777C12.3075 13.777 11.7592 13.236 11.7592 12.5688C11.7592 11.9133 12.289 11.3773 12.9532 11.3609L13.5184 11.347M12.9838 13.777H12.9247C12.281 13.777 11.7592 14.2918 11.7592 14.9269C11.7592 15.5619 12.281 16.0768 12.9247 16.0768H13.3171M15.5746 16.0768H13.3171M15.5746 16.0768C16.1819 16.0768 16.6742 16.6058 16.6742 17.205C16.6742 17.8041 16.1819 18.3332 15.5746 18.3332H13.3171M13.3171 16.0768C12.7098 16.0768 12.2175 16.6058 12.2175 17.205C12.2175 17.8041 12.7098 18.3332 13.3171 18.3332" stroke="#1565FF" stroke-width="2" stroke-linecap="round" stroke-linejoin="round"/>
</svg>
