<svg width="20" height="20" viewBox="0 0 20 20" fill="none" xmlns="http://www.w3.org/2000/svg">
<path d="M7.5 15.4167C7.5 16.5673 6.38071 17.5 5 17.5C3.61929 17.5 2.5 16.5673 2.5 15.4167C2.5 14.2661 3.61929 13.3333 5 13.3333C6.38071 13.3333 7.5 14.2661 7.5 15.4167ZM7.5 15.4167V5.5C7.5 3.84315 8.84315 2.5 10.5 2.5H14.5C16.1569 2.5 17.5 3.84315 17.5 5.5V15.4167M17.5 15.4167C17.5 16.5673 16.3807 17.5 15 17.5C13.6193 17.5 12.5 16.5673 12.5 15.4167C12.5 14.2661 13.6193 13.3333 15 13.3333C16.3807 13.3333 17.5 14.2661 17.5 15.4167Z" stroke="#1565FF" stroke-width="2" stroke-linecap="round" stroke-linejoin="round"/>
</svg>
