<?xml version="1.0" encoding="UTF-8"?>
<svg width="20px" height="20px" viewBox="0 0 20 20" version="1.1" xmlns="http://www.w3.org/2000/svg" xmlns:xlink="http://www.w3.org/1999/xlink">
    <title>16x16@1x</title>
    <g id="16x16" stroke="none" stroke-width="1" fill="none" fill-rule="evenodd">
        <path d="M15.8698009,6.72731 C16.2966009,6.55495 16.7822009,6.76118 16.9546009,7.18793 C18.0470009,9.89274 17.4981009,13.1083 15.3032009,15.3033 C12.3742009,18.2322 7.62549094,18.2322 4.69656094,15.3033 C2.50158094,13.1083 1.95274094,9.89274 3.04514094,7.18793 C3.21749094,6.76118 3.70316094,6.55495 4.12991094,6.72731 C4.55665094,6.89966 4.76288094,7.38532 4.59053094,7.81207 C3.73968094,9.9188 4.16950094,12.4192 5.87507094,14.1248 C8.15313094,16.4028 11.8466009,16.4028 14.1246009,14.1248 C15.8302009,12.4192 16.2600009,9.9188 15.4092009,7.81207 C15.2368009,7.38532 15.4431009,6.89966 15.8698009,6.72731 Z M9.41060094,2.74408 C9.73604094,2.41864 10.2637009,2.41864 10.5891009,2.74408 L13.5058009,5.66074 C13.8312009,5.98618 13.8312009,6.51382 13.5058009,6.83926 C13.1803009,7.16469 12.6527009,7.16469 12.3273009,6.83926 L10.8332009,5.34518 L10.8332009,11.6667 C10.8332009,12.1269 10.4601009,12.5 9.99986094,12.5 C9.53962094,12.5 9.16653094,12.1269 9.16653094,11.6667 L9.16653094,5.34518 L7.67245094,6.83926 C7.34701094,7.16469 6.81937094,7.16469 6.49394094,6.83926 C6.16850094,6.51382 6.16850094,5.98618 6.49394094,5.66074 Z" id="Combined-Shape" fill="#1565FF" fill-rule="nonzero"></path>
    </g>
</svg>