<svg width="20" height="20" viewBox="0 0 20 20" fill="none" xmlns="http://www.w3.org/2000/svg">
<path d="M10.438 0.666992C15.3503 0.667016 19.3334 4.64921 19.3335 9.56152C19.3333 14.4738 15.3503 18.456 10.438 18.4561C9.31044 18.456 8.2292 18.2458 7.23389 17.8613C6.88964 17.7284 6.57677 17.7184 6.33447 17.8008L3.91357 18.625C2.34225 19.1601 0.840611 17.6582 1.37549 16.0869L2.19971 13.666C2.2822 13.4237 2.27114 13.11 2.13818 12.7656C1.75379 11.7704 1.5435 10.689 1.54346 9.56152C1.54357 4.64934 5.52583 0.667233 10.438 0.666992ZM10.438 2.66699C6.6304 2.66723 3.54357 5.75391 3.54346 9.56152C3.5435 10.4387 3.70735 11.2759 4.00439 12.0449C4.26342 12.7156 4.36141 13.5228 4.09326 14.3105L3.26807 16.7314L5.68896 15.9072C6.4769 15.6389 7.28373 15.737 7.95459 15.9961C8.72365 16.2932 9.56078 16.456 10.438 16.4561C14.2457 16.456 17.3333 13.3692 17.3335 9.56152C17.3334 5.75377 14.2458 2.66702 10.438 2.66699ZM7.0835 8.75C7.54352 8.75012 7.91633 9.123 7.9165 9.58301C7.9165 10.0432 7.54363 10.4169 7.0835 10.417C6.62326 10.417 6.24951 10.0432 6.24951 9.58301C6.24969 9.12292 6.62337 8.75 7.0835 8.75ZM10.4165 8.75C10.8766 8.75 11.2493 9.12292 11.2495 9.58301C11.2495 10.0432 10.8767 10.417 10.4165 10.417C9.95631 10.4169 9.5835 10.0432 9.5835 9.58301C9.58367 9.12295 9.95642 8.75005 10.4165 8.75ZM13.7495 8.75C14.2096 8.75 14.5833 9.12292 14.5835 9.58301C14.5835 10.0432 14.2097 10.417 13.7495 10.417C13.2895 10.4168 12.9165 10.0431 12.9165 9.58301C12.9167 9.12306 13.2896 8.75023 13.7495 8.75Z" fill="#1565FF"/>
</svg>
