<svg width="20" height="20" viewBox="0 0 20 20" fill="none" xmlns="http://www.w3.org/2000/svg">
<g clip-path="url(#clip0_17834_5954)">
<mask id="path-1-inside-1_17834_5954" fill="white">
<path d="M7.3291 1.77441C8.8034 0.297698 11.1965 0.297864 12.6709 1.77441C13.0039 2.10783 13.4565 2.29519 13.9277 2.29492C16.0143 2.29336 17.7067 3.98564 17.7051 6.07227C17.7048 6.54351 17.8922 6.99605 18.2256 7.3291C19.7021 8.80351 19.7023 11.1966 18.2256 12.6709C17.892 13.0039 17.7048 13.4564 17.7051 13.9277C17.7066 16.0143 16.0143 17.7066 13.9277 17.7051C13.4564 17.7048 13.0039 17.892 12.6709 18.2256C11.1966 19.7023 8.80351 19.7021 7.3291 18.2256C6.99605 17.8922 6.54351 17.7048 6.07227 17.7051C3.98564 17.7067 2.29336 16.0143 2.29492 13.9277C2.29519 13.4565 2.10783 13.0039 1.77441 12.6709C0.297864 11.1965 0.297698 8.8034 1.77441 7.3291C2.108 6.99602 2.29524 6.54366 2.29492 6.07227C2.29332 3.98562 3.98562 2.29332 6.07227 2.29492C6.54366 2.29524 6.99602 2.108 7.3291 1.77441ZM11.2559 3.1875C10.5629 2.49344 9.43819 2.49355 8.74512 3.1875C8.03657 3.8972 7.07412 4.29555 6.07129 4.29492C5.09033 4.29412 4.29412 5.09033 4.29492 6.07129C4.29555 7.07412 3.8972 8.03657 3.1875 8.74512C2.49355 9.43819 2.49344 10.5629 3.1875 11.2559C3.89717 11.9645 4.2957 12.9268 4.29492 13.9297C4.29427 14.9105 5.09042 15.7059 6.07129 15.7051C7.07412 15.7045 8.03657 16.1038 8.74512 16.8135C9.43817 17.5069 10.563 17.5072 11.2559 16.8135C11.9645 16.1036 12.9266 15.7043 13.9297 15.7051C14.9104 15.7057 15.7057 14.9104 15.7051 13.9297C15.7043 12.9266 16.1036 11.9645 16.8135 11.2559C17.5072 10.563 17.5069 9.43817 16.8135 8.74512C16.1038 8.03657 15.7045 7.07412 15.7051 6.07129L15.6963 5.88965C15.6062 4.99387 14.8494 4.29431 13.9297 4.29492C12.9268 4.2957 11.9645 3.89717 11.2559 3.1875ZM11.793 6.79297C12.1834 6.40255 12.8165 6.40277 13.207 6.79297C13.5973 7.18351 13.5975 7.8166 13.207 8.20703L8.20703 13.207C7.8166 13.5975 7.18351 13.5973 6.79297 13.207C6.40277 12.8165 6.40255 12.1834 6.79297 11.793L11.793 6.79297ZM12.292 11.25C12.8672 11.2501 13.333 11.7168 13.333 12.292C13.3329 12.8671 12.8671 13.3329 12.292 13.333C11.7168 13.333 11.2501 12.8672 11.25 12.292C11.25 11.7167 11.7167 11.25 12.292 11.25ZM7.70801 6.66699C8.28318 6.66699 8.7498 7.13289 8.75 7.70801C8.75 8.2833 8.2833 8.75 7.70801 8.75C7.13289 8.7498 6.66699 8.28318 6.66699 7.70801C6.6672 7.13301 7.13301 6.6672 7.70801 6.66699Z"/>
</mask>
<path d="M7.3291 1.77441C8.8034 0.297698 11.1965 0.297864 12.6709 1.77441C13.0039 2.10783 13.4565 2.29519 13.9277 2.29492C16.0143 2.29336 17.7067 3.98564 17.7051 6.07227C17.7048 6.54351 17.8922 6.99605 18.2256 7.3291C19.7021 8.80351 19.7023 11.1966 18.2256 12.6709C17.892 13.0039 17.7048 13.4564 17.7051 13.9277C17.7066 16.0143 16.0143 17.7066 13.9277 17.7051C13.4564 17.7048 13.0039 17.892 12.6709 18.2256C11.1966 19.7023 8.80351 19.7021 7.3291 18.2256C6.99605 17.8922 6.54351 17.7048 6.07227 17.7051C3.98564 17.7067 2.29336 16.0143 2.29492 13.9277C2.29519 13.4565 2.10783 13.0039 1.77441 12.6709C0.297864 11.1965 0.297698 8.8034 1.77441 7.3291C2.108 6.99602 2.29524 6.54366 2.29492 6.07227C2.29332 3.98562 3.98562 2.29332 6.07227 2.29492C6.54366 2.29524 6.99602 2.108 7.3291 1.77441ZM11.2559 3.1875C10.5629 2.49344 9.43819 2.49355 8.74512 3.1875C8.03657 3.8972 7.07412 4.29555 6.07129 4.29492C5.09033 4.29412 4.29412 5.09033 4.29492 6.07129C4.29555 7.07412 3.8972 8.03657 3.1875 8.74512C2.49355 9.43819 2.49344 10.5629 3.1875 11.2559C3.89717 11.9645 4.2957 12.9268 4.29492 13.9297C4.29427 14.9105 5.09042 15.7059 6.07129 15.7051C7.07412 15.7045 8.03657 16.1038 8.74512 16.8135C9.43817 17.5069 10.563 17.5072 11.2559 16.8135C11.9645 16.1036 12.9266 15.7043 13.9297 15.7051C14.9104 15.7057 15.7057 14.9104 15.7051 13.9297C15.7043 12.9266 16.1036 11.9645 16.8135 11.2559C17.5072 10.563 17.5069 9.43817 16.8135 8.74512C16.1038 8.03657 15.7045 7.07412 15.7051 6.07129L15.6963 5.88965C15.6062 4.99387 14.8494 4.29431 13.9297 4.29492C12.9268 4.2957 11.9645 3.89717 11.2559 3.1875ZM11.793 6.79297C12.1834 6.40255 12.8165 6.40277 13.207 6.79297C13.5973 7.18351 13.5975 7.8166 13.207 8.20703L8.20703 13.207C7.8166 13.5975 7.18351 13.5973 6.79297 13.207C6.40277 12.8165 6.40255 12.1834 6.79297 11.793L11.793 6.79297ZM12.292 11.25C12.8672 11.2501 13.333 11.7168 13.333 12.292C13.3329 12.8671 12.8671 13.3329 12.292 13.333C11.7168 13.333 11.2501 12.8672 11.25 12.292C11.25 11.7167 11.7167 11.25 12.292 11.25ZM7.70801 6.66699C8.28318 6.66699 8.7498 7.13289 8.75 7.70801C8.75 8.2833 8.2833 8.75 7.70801 8.75C7.13289 8.7498 6.66699 8.28318 6.66699 7.70801C6.6672 7.13301 7.13301 6.6672 7.70801 6.66699Z" fill="black"/>
<path d="M7.3291 1.77441L8.03674 2.48099L8.03679 2.48094L7.3291 1.77441ZM12.6709 1.77441L11.9633 2.48101L11.9634 2.4811L12.6709 1.77441ZM13.9277 2.29492L13.9283 3.29492L13.9285 3.29492L13.9277 2.29492ZM17.7051 6.07227L16.7051 6.0715L16.7051 6.0716L17.7051 6.07227ZM18.2256 7.3291L17.5188 8.03656L17.519 8.03672L18.2256 7.3291ZM18.2256 12.6709L17.5191 11.9632L17.519 11.9633L18.2256 12.6709ZM17.7051 13.9277L16.7051 13.9283L16.7051 13.9285L17.7051 13.9277ZM13.9277 17.7051L13.9285 16.7051L13.9283 16.7051L13.9277 17.7051ZM12.6709 18.2256L11.9633 17.519L11.9632 17.5191L12.6709 18.2256ZM7.3291 18.2256L8.03672 17.519L8.03656 17.5188L7.3291 18.2256ZM6.07227 17.7051L6.0716 16.7051L6.0715 16.7051L6.07227 17.7051ZM2.29492 13.9277L3.29492 13.9285L3.29492 13.9283L2.29492 13.9277ZM1.77441 12.6709L2.4811 11.9634L2.48101 11.9633L1.77441 12.6709ZM1.77441 7.3291L2.48094 8.03679L2.48099 8.03674L1.77441 7.3291ZM2.29492 6.07227L3.29492 6.0716L3.29492 6.0715L2.29492 6.07227ZM6.07227 2.29492L6.0715 3.29492L6.0716 3.29492L6.07227 2.29492ZM11.2559 3.1875L10.5482 3.89407L10.5482 3.8941L11.2559 3.1875ZM8.74512 3.1875L8.03756 2.48084L8.03743 2.48097L8.74512 3.1875ZM6.07129 4.29492L6.07047 5.29492L6.07067 5.29492L6.07129 4.29492ZM4.29492 6.07129L5.29492 6.07067L5.29492 6.07047L4.29492 6.07129ZM3.1875 8.74512L2.48097 8.03743L2.48084 8.03756L3.1875 8.74512ZM3.1875 11.2559L3.8941 10.5482L3.89407 10.5482L3.1875 11.2559ZM4.29492 13.9297L3.29492 13.9289L3.29492 13.929L4.29492 13.9297ZM6.07129 15.7051L6.07067 14.7051L6.07047 14.7051L6.07129 15.7051ZM8.74512 16.8135L8.03743 17.52L8.0378 17.5204L8.74512 16.8135ZM11.2559 16.8135L11.9634 17.5201L11.9635 17.52L11.2559 16.8135ZM13.9297 15.7051L13.9289 16.7051L13.929 16.7051L13.9297 15.7051ZM15.7051 13.9297L16.7051 13.929L16.7051 13.9289L15.7051 13.9297ZM16.8135 11.2559L17.52 11.9635L17.5201 11.9634L16.8135 11.2559ZM16.8135 8.74512L17.5204 8.0378L17.52 8.03743L16.8135 8.74512ZM15.7051 6.07129L16.7051 6.07191L16.7051 6.04742L16.7039 6.02296L15.7051 6.07129ZM15.6963 5.88965L16.6951 5.84132L16.6939 5.81539L16.6913 5.78955L15.6963 5.88965ZM13.9297 4.29492L13.929 3.29492L13.9289 3.29492L13.9297 4.29492ZM11.793 6.79297L12.5001 7.50008L11.793 6.79297ZM13.207 6.79297L13.9144 6.08613L13.9138 6.08554L13.207 6.79297ZM13.207 8.20703L13.9141 8.91414L13.207 8.20703ZM8.20703 13.207L8.91414 13.9141L8.20703 13.207ZM6.79297 13.207L6.08554 13.9138L6.08613 13.9144L6.79297 13.207ZM6.79297 11.793L7.50008 12.5001L6.79297 11.793ZM12.292 11.25L12.2922 10.25H12.292V11.25ZM13.333 12.292L14.333 12.2922V12.292H13.333ZM12.292 13.333L12.292 14.333L12.2922 14.333L12.292 13.333ZM11.25 12.292L10.25 12.292L10.25 12.2922L11.25 12.292ZM7.70801 6.66699L7.70801 5.66699L7.70765 5.66699L7.70801 6.66699ZM8.75 7.70801L9.75 7.70801L9.75 7.70765L8.75 7.70801ZM7.70801 8.75L7.70765 9.75H7.70801V8.75ZM6.66699 7.70801L5.66699 7.70765V7.70801H6.66699ZM7.3291 1.77441L8.03679 2.48094C9.12037 1.39559 10.8794 1.3956 11.9633 2.48101L12.6709 1.77441L13.3785 1.06782C11.5135 -0.799874 8.48644 -0.800191 6.62142 1.06789L7.3291 1.77441ZM12.6709 1.77441L11.9634 2.4811C12.4842 3.00257 13.1916 3.29533 13.9283 3.29492L13.9277 2.29492L13.9272 1.29492C13.7214 1.29504 13.5236 1.21309 13.3784 1.06773L12.6709 1.77441ZM13.9277 2.29492L13.9285 3.29492C15.4622 3.29378 16.7063 4.53778 16.7051 6.0715L17.7051 6.07227L18.7051 6.07303C18.7071 3.43351 16.5664 1.29295 13.927 1.29492L13.9277 2.29492ZM17.7051 6.07227L16.7051 6.0716C16.7046 6.80852 16.9976 7.51582 17.5188 8.03656L18.2256 7.3291L18.9323 6.62164C18.7868 6.47629 18.7049 6.27851 18.7051 6.07293L17.7051 6.07227ZM18.2256 7.3291L17.519 8.03672C18.6044 9.12055 18.6044 10.8796 17.5191 11.9632L18.2256 12.6709L18.9321 13.3786C20.8002 11.5136 20.7998 8.48646 18.9322 6.62149L18.2256 7.3291ZM18.2256 12.6709L17.519 11.9633C16.9972 12.4843 16.7047 13.1916 16.7051 13.9283L17.7051 13.9277L18.7051 13.9272C18.705 13.7212 18.7869 13.5236 18.9322 13.3785L18.2256 12.6709ZM17.7051 13.9277L16.7051 13.9285C16.7062 15.4622 15.4622 16.7062 13.9285 16.7051L13.9277 17.7051L13.927 18.7051C16.5664 18.7071 18.7071 16.5664 18.7051 13.927L17.7051 13.9277ZM13.9277 17.7051L13.9283 16.7051C13.1916 16.7047 12.4843 16.9972 11.9633 17.519L12.6709 18.2256L13.3785 18.9322C13.5236 18.7869 13.7212 18.705 13.9272 18.7051L13.9277 17.7051ZM12.6709 18.2256L11.9632 17.5191C10.8796 18.6044 9.12055 18.6044 8.03672 17.519L7.3291 18.2256L6.62149 18.9322C8.48647 20.7998 11.5136 20.8002 13.3786 18.9321L12.6709 18.2256ZM7.3291 18.2256L8.03656 17.5188C7.51582 16.9976 6.80851 16.7046 6.0716 16.7051L6.07227 17.7051L6.07293 18.7051C6.27851 18.7049 6.47629 18.7868 6.62164 18.9323L7.3291 18.2256ZM6.07227 17.7051L6.0715 16.7051C4.53778 16.7063 3.29378 15.4622 3.29492 13.9285L2.29492 13.9277L1.29492 13.927C1.29295 16.5664 3.43351 18.7071 6.07303 18.7051L6.07227 17.7051ZM2.29492 13.9277L3.29492 13.9283C3.29533 13.1916 3.00257 12.4842 2.4811 11.9634L1.77441 12.6709L1.06773 13.3784C1.21309 13.5236 1.29504 13.7214 1.29492 13.9272L2.29492 13.9277ZM1.77441 12.6709L2.48101 11.9633C1.3956 10.8794 1.39559 9.12037 2.48094 8.03679L1.77441 7.3291L1.06789 6.62142C-0.800191 8.48644 -0.799874 11.5135 1.06782 13.3785L1.77441 12.6709ZM1.77441 7.3291L2.48099 8.03674C3.00276 7.51576 3.29541 6.80848 3.29492 6.0716L2.29492 6.07227L1.29492 6.07293C1.29506 6.27885 1.21324 6.47628 1.06784 6.62146L1.77441 7.3291ZM2.29492 6.07227L3.29492 6.0715C3.29374 4.53773 4.53773 3.29374 6.0715 3.29492L6.07227 2.29492L6.07303 1.29492C3.4335 1.2929 1.2929 3.4335 1.29492 6.07303L2.29492 6.07227ZM6.07227 2.29492L6.0716 3.29492C6.80848 3.29541 7.51576 3.00276 8.03674 2.48099L7.3291 1.77441L6.62146 1.06784C6.47628 1.21324 6.27885 1.29506 6.07293 1.29492L6.07227 2.29492ZM11.2559 3.1875L11.9635 2.48093C10.8798 1.39554 9.12117 1.39585 8.03756 2.48084L8.74512 3.1875L9.45267 3.89416C9.75521 3.59124 10.2459 3.59134 10.5482 3.89407L11.2559 3.1875ZM8.74512 3.1875L8.03743 2.48097C7.51683 3.00243 6.80932 3.29538 6.07191 3.29492L6.07129 4.29492L6.07067 5.29492C7.33893 5.29571 8.55632 4.79198 9.4528 3.89403L8.74512 3.1875ZM6.07129 4.29492L6.07211 3.29492C4.53823 3.29367 3.29367 4.53823 3.29492 6.07211L4.29492 6.07129L5.29492 6.07047C5.29457 5.64244 5.64244 5.29457 6.07047 5.29492L6.07129 4.29492ZM4.29492 6.07129L3.29492 6.07191C3.29538 6.80932 3.00243 7.51683 2.48097 8.03743L3.1875 8.74512L3.89403 9.4528C4.79198 8.55632 5.29571 7.33893 5.29492 6.07067L4.29492 6.07129ZM3.1875 8.74512L2.48084 8.03756C1.39585 9.12117 1.39554 10.8798 2.48093 11.9635L3.1875 11.2559L3.89407 10.5482C3.59134 10.2459 3.59124 9.75521 3.89416 9.45267L3.1875 8.74512ZM3.1875 11.2559L2.4809 11.9635C3.00253 12.4844 3.2955 13.1917 3.29492 13.9289L4.29492 13.9297L5.29492 13.9305C5.29591 12.6618 4.79182 11.4447 3.8941 10.5482L3.1875 11.2559ZM4.29492 13.9297L3.29492 13.929C3.2939 15.4632 4.53888 16.7063 6.07211 16.7051L6.07129 15.7051L6.07047 14.7051C5.64196 14.7054 5.29464 14.3578 5.29492 13.9304L4.29492 13.9297ZM6.07129 15.7051L6.07191 16.7051C6.80866 16.7046 7.51636 16.9981 8.03743 17.52L8.74512 16.8135L9.4528 16.1069C8.55679 15.2095 7.33959 14.7043 6.07067 14.7051L6.07129 15.7051ZM8.74512 16.8135L8.0378 17.5204C9.12118 18.6044 10.8797 18.6053 11.9634 17.5201L11.2559 16.8135L10.5483 16.1068C10.2463 16.4092 9.75515 16.4095 9.45244 16.1066L8.74512 16.8135ZM11.2559 16.8135L11.9635 17.52C12.4848 16.9979 13.1922 16.7045 13.9289 16.7051L13.9297 15.7051L13.9305 14.7051C12.6611 14.7041 11.4442 15.2094 10.5482 16.1069L11.2559 16.8135ZM13.9297 15.7051L13.929 16.7051C15.4626 16.7061 16.7061 15.4626 16.7051 13.929L15.7051 13.9297L14.7051 13.9304C14.7054 14.3583 14.3583 14.7054 13.9304 14.7051L13.9297 15.7051ZM15.7051 13.9297L16.7051 13.9289C16.7045 13.1922 16.9979 12.4848 17.52 11.9635L16.8135 11.2559L16.1069 10.5482C15.2094 11.4442 14.7041 12.6611 14.7051 13.9305L15.7051 13.9297ZM16.8135 11.2559L17.5201 11.9634C18.6053 10.8797 18.6044 9.12118 17.5204 8.0378L16.8135 8.74512L16.1066 9.45244C16.4095 9.75515 16.4092 10.2463 16.1068 10.5483L16.8135 11.2559ZM16.8135 8.74512L17.52 8.03743C16.9981 7.51636 16.7046 6.80866 16.7051 6.07191L15.7051 6.07129L14.7051 6.07067C14.7043 7.33959 15.2095 8.55679 16.1069 9.4528L16.8135 8.74512ZM15.7051 6.07129L16.7039 6.02296L16.6951 5.84132L15.6963 5.88965L14.6975 5.93798L14.7062 6.11962L15.7051 6.07129ZM15.6963 5.88965L16.6913 5.78955C16.5503 4.38784 15.3677 3.29396 13.929 3.29492L13.9297 4.29492L13.9304 5.29492C14.331 5.29465 14.6621 5.59989 14.7013 5.98974L15.6963 5.88965ZM13.9297 4.29492L13.9289 3.29492C13.1917 3.2955 12.4844 3.00253 11.9635 2.4809L11.2559 3.1875L10.5482 3.8941C11.4447 4.79182 12.6618 5.29591 13.9305 5.29492L13.9297 4.29492ZM11.793 6.79297L12.5001 7.50008L12.5002 7.50039L13.207 6.79297L13.9138 6.08554C13.1331 5.30556 11.8671 5.3046 11.0859 6.08586L11.793 6.79297ZM13.207 6.79297L12.4997 7.49981L12.4999 7.49992L13.207 8.20703L13.9141 8.91414C14.6954 8.13291 14.6946 6.86687 13.9144 6.08613L13.207 6.79297ZM13.207 8.20703L12.4999 7.49992L7.49992 12.4999L8.20703 13.207L8.91414 13.9141L13.9141 8.91414L13.207 8.20703ZM8.20703 13.207L7.49992 12.4999L7.49981 12.4997L6.79297 13.207L6.08613 13.9144C6.86687 14.6946 8.13291 14.6954 8.91414 13.9141L8.20703 13.207ZM6.79297 13.207L7.50039 12.5002L7.50008 12.5001L6.79297 11.793L6.08586 11.0859C5.3046 11.8671 5.30556 13.1331 6.08554 13.9138L6.79297 13.207ZM6.79297 11.793L7.50008 12.5001L12.5001 7.50008L11.793 6.79297L11.0859 6.08586L6.08586 11.0859L6.79297 11.793ZM12.292 11.25L12.2917 12.25C12.3139 12.25 12.333 12.2681 12.333 12.292H13.333H14.333C14.333 11.1655 13.4205 10.2503 12.2922 10.25L12.292 11.25ZM13.333 12.292L12.333 12.2917C12.333 12.3147 12.3147 12.333 12.2917 12.333L12.292 13.333L12.2922 14.333C13.4194 14.3327 14.3327 13.4194 14.333 12.2922L13.333 12.292ZM12.292 13.333V12.333C12.2681 12.333 12.25 12.3139 12.25 12.2917L11.25 12.292L10.25 12.2922C10.2503 13.4205 11.1655 14.333 12.292 14.333V13.333ZM11.25 12.292H12.25C12.25 12.269 12.269 12.25 12.292 12.25V11.25V10.25C11.1644 10.25 10.25 11.1644 10.25 12.292H11.25ZM7.70801 6.66699V7.66699C7.73176 7.66699 7.74999 7.68611 7.75 7.70836L8.75 7.70801L9.75 7.70765C9.7496 6.57966 8.8346 5.66699 7.70801 5.66699V6.66699ZM8.75 7.70801H7.75C7.75 7.73102 7.73102 7.75 7.70801 7.75V8.75V9.75C8.83559 9.75 9.75 8.83559 9.75 7.70801H8.75ZM7.70801 8.75L7.70836 7.75C7.68611 7.74999 7.66699 7.73176 7.66699 7.70801H6.66699H5.66699C5.66699 8.8346 6.57966 9.7496 7.70765 9.75L7.70801 8.75ZM6.66699 7.70801L7.66699 7.70836C7.667 7.68537 7.68537 7.667 7.70836 7.66699L7.70801 6.66699L7.70765 5.66699C6.58065 5.66739 5.66739 6.58065 5.66699 7.70765L6.66699 7.70801Z" fill="#1565FF" mask="url(#path-1-inside-1_17834_5954)"/>
</g>
<defs>
<clipPath id="clip0_17834_5954">
<rect width="20" height="20" fill="white"/>
</clipPath>
</defs>
</svg>
