<svg width="20" height="20" viewBox="0 0 20 20" fill="none" xmlns="http://www.w3.org/2000/svg">
<path d="M10 13.3333C9.07955 13.3333 8.33335 14.0795 8.33335 15H4.16669C2.78597 15 1.66669 13.8807 1.66669 12.5V11.6667C2.58716 11.6667 3.33335 10.9205 3.33335 10C3.33335 9.07953 2.58716 8.33333 1.66669 8.33333V7.5C1.66669 6.11929 2.78598 5 4.16669 5H8.33335C8.33335 5.92047 9.07955 6.66667 10 6.66667C10.9205 6.66667 11.6667 5.92047 11.6667 5H15.8334C17.2141 5 18.3334 6.11929 18.3334 7.5V8.33333C17.4129 8.33333 16.6667 9.07953 16.6667 10C16.6667 10.9205 17.4129 11.6667 18.3334 11.6667V12.5C18.3334 13.8807 17.2141 15 15.8334 15H11.6667C11.6667 14.0795 10.9205 13.3333 10 13.3333ZM10 13.3333V11.25M9.96339 8.74961V6.66627" stroke="#1565FF" stroke-width="2" stroke-linecap="round" stroke-linejoin="round"/>
</svg>
